<?xml version="1.0" standalone="no"?><!DOCTYPE svg PUBLIC "-//W3C//DTD SVG 1.1//EN" "http://www.w3.org/Graphics/SVG/1.1/DTD/svg11.dtd"><svg t="1705379195542" class="icon" viewBox="0 0 1024 1024" version="1.1" xmlns="http://www.w3.org/2000/svg" p-id="3112" xmlns:xlink="http://www.w3.org/1999/xlink" width="128" height="128"><path d="M750.3872 61.0304c67.8912 0 106.3424 77.8752 64.9728 131.7888l-258.048 336.1792v368.7424a81.92 81.92 0 0 1-114.3296 75.264l-6.144-2.9696-91.392-48.7936a104.6528 104.6528 0 0 1-55.3984-92.3136l-0.0512-298.5472L30.1056 192.9216c-40.0384-52.0192-5.632-126.5664 57.9584-131.584l6.9632-0.3072z m180.5312 779.2128a40.96 40.96 0 1 1 0 81.92h-266.24a40.96 40.96 0 1 1 0-81.92h266.24zM750.3872 142.848h-655.36l276.9408 359.5776v326.4512l0.3584 4.096a22.7328 22.7328 0 0 0 11.6736 15.9232l91.392 48.7936V501.248l274.944-358.2464z m180.5312 542.0544a40.96 40.96 0 1 1 0 81.92h-266.24a40.96 40.96 0 1 1 0-81.92h266.24z m0-172.9536a40.96 40.96 0 1 1 0 81.92h-266.24a40.96 40.96 0 1 1 0-81.92h266.24z" p-id="3113"></path></svg>