<?xml version="1.0" standalone="no"?><!DOCTYPE svg PUBLIC "-//W3C//DTD SVG 1.1//EN" "http://www.w3.org/Graphics/SVG/1.1/DTD/svg11.dtd"><svg t="1697791639561" class="icon" viewBox="0 0 1024 1024" version="1.1" xmlns="http://www.w3.org/2000/svg" p-id="4031" width="128" height="128" xmlns:xlink="http://www.w3.org/1999/xlink"><path d="M199.67 183.21c39.28-16.12 70-6.05 94.17 21.15-10.58 137.99-34.24 264.39-72.02 378.71-40.79-9.07-82.08-18.63-122.88-27.7 15.12-135.97 49.36-259.85 100.73-372.16z m21.15 540.37l-19.64 61.94h758.94V377.1l-9.57-9.07-114.82-110.79-9.07-8.56H332.12c-2.01 21.15-4.03 41.29-6.55 61.95h458.29l-9.07 96.18-1.51 17.63 17.63-0.5 107.27-4.03v304.68c-159.15-1.01-344.47-1.01-677.36-1.01z m662.75-334.9l-76.04 3.03 6.55-70.01 69.49 66.98zM335.64 534.22h361.59v23.67H335.64v-23.67z m0-88.13h335.4v23.67h-335.4v-23.67z m0-89.64h335.4v23.67h-335.4v-23.67zM90.39 738.69l51.37 12.59-1.01 53.38-37.27 43.31c-8.06-2.02-16.12-3.53-24.68-5.54l-14.6-56.9 26.19-46.84z m7.55-158.13c-6.55 47.34-12.59 95.18-19.13 142.52 28.2 6.55 56.4 12.59 84.61 19.14 15.61-45.33 31.22-90.65 46.33-135.98L97.94 580.56z m0 0" fill="#231815" p-id="4032"></path></svg>